<mxfile host="app.diagrams.net" modified="2021-07-31T09:42:33.073Z" agent="5.0 (Macintosh; Intel Mac OS X 10_15_7) AppleWebKit/537.36 (KHTML, like Gecko) Chrome/92.0.4515.107 Safari/537.36" etag="BiB4vAzrwfxkK0xXXCtY" version="14.9.3" type="github">
  <diagram id="C5RBs43oDa-KdzZeNtuy" name="Page-1">
    <mxGraphModel dx="946" dy="614" grid="1" gridSize="10" guides="1" tooltips="1" connect="1" arrows="1" fold="1" page="1" pageScale="1" pageWidth="827" pageHeight="1169" math="0" shadow="0">
      <root>
        <mxCell id="WIyWlLk6GJQsqaUBKTNV-0" />
        <mxCell id="WIyWlLk6GJQsqaUBKTNV-1" parent="WIyWlLk6GJQsqaUBKTNV-0" />
        <mxCell id="k0kh8Ats0GjNNbO5gGzA-10" value="Yes" style="text;html=1;align=center;verticalAlign=middle;resizable=0;points=[];autosize=1;strokeColor=none;" vertex="1" parent="WIyWlLk6GJQsqaUBKTNV-1">
          <mxGeometry x="595" y="80" width="40" height="20" as="geometry" />
        </mxCell>
        <mxCell id="k0kh8Ats0GjNNbO5gGzA-12" value="No" style="text;html=1;align=center;verticalAlign=middle;resizable=0;points=[];autosize=1;strokeColor=none;" vertex="1" parent="WIyWlLk6GJQsqaUBKTNV-1">
          <mxGeometry x="600" y="170" width="30" height="20" as="geometry" />
        </mxCell>
        <mxCell id="k0kh8Ats0GjNNbO5gGzA-35" value="null" style="rounded=1;whiteSpace=wrap;html=1;arcSize=13;fillColor=#dae8fc;strokeColor=#6c8ebf;" vertex="1" parent="WIyWlLk6GJQsqaUBKTNV-1">
          <mxGeometry x="670" y="425" width="120" height="60" as="geometry" />
        </mxCell>
        <mxCell id="k0kh8Ats0GjNNbO5gGzA-37" value="render(props)" style="rounded=1;whiteSpace=wrap;html=1;arcSize=13;fillColor=#dae8fc;strokeColor=#6c8ebf;" vertex="1" parent="WIyWlLk6GJQsqaUBKTNV-1">
          <mxGeometry x="670" y="340" width="120" height="60" as="geometry" />
        </mxCell>
        <mxCell id="k0kh8Ats0GjNNbO5gGzA-38" value="children(props)" style="rounded=1;whiteSpace=wrap;html=1;arcSize=13;fillColor=#dae8fc;strokeColor=#6c8ebf;" vertex="1" parent="WIyWlLk6GJQsqaUBKTNV-1">
          <mxGeometry x="670" y="75" width="120" height="60" as="geometry" />
        </mxCell>
        <mxCell id="k0kh8Ats0GjNNbO5gGzA-39" value="children" style="rounded=1;whiteSpace=wrap;html=1;arcSize=13;fillColor=#dae8fc;strokeColor=#6c8ebf;" vertex="1" parent="WIyWlLk6GJQsqaUBKTNV-1">
          <mxGeometry x="670" y="160" width="120" height="60" as="geometry" />
        </mxCell>
        <mxCell id="k0kh8Ats0GjNNbO5gGzA-40" value="React.createElement&lt;br&gt;(component, props)" style="rounded=1;whiteSpace=wrap;html=1;arcSize=13;fillColor=#d5e8d4;strokeColor=#82b366;gradientColor=#97d077;" vertex="1" parent="WIyWlLk6GJQsqaUBKTNV-1">
          <mxGeometry x="670" y="250" width="120" height="60" as="geometry" />
        </mxCell>
        <mxCell id="k0kh8Ats0GjNNbO5gGzA-44" style="edgeStyle=orthogonalEdgeStyle;rounded=0;orthogonalLoop=1;jettySize=auto;html=1;entryX=0;entryY=0.5;entryDx=0;entryDy=0;exitX=0.5;exitY=0;exitDx=0;exitDy=0;" edge="1" parent="WIyWlLk6GJQsqaUBKTNV-1" source="k0kh8Ats0GjNNbO5gGzA-43" target="k0kh8Ats0GjNNbO5gGzA-38">
          <mxGeometry relative="1" as="geometry" />
        </mxCell>
        <mxCell id="k0kh8Ats0GjNNbO5gGzA-45" style="edgeStyle=orthogonalEdgeStyle;rounded=0;orthogonalLoop=1;jettySize=auto;html=1;exitX=0.5;exitY=1;exitDx=0;exitDy=0;entryX=0;entryY=0.5;entryDx=0;entryDy=0;" edge="1" parent="WIyWlLk6GJQsqaUBKTNV-1" source="k0kh8Ats0GjNNbO5gGzA-43" target="k0kh8Ats0GjNNbO5gGzA-39">
          <mxGeometry relative="1" as="geometry">
            <Array as="points">
              <mxPoint x="565" y="190" />
            </Array>
          </mxGeometry>
        </mxCell>
        <mxCell id="k0kh8Ats0GjNNbO5gGzA-43" value="children is function" style="rhombus;whiteSpace=wrap;html=1;" vertex="1" parent="WIyWlLk6GJQsqaUBKTNV-1">
          <mxGeometry x="500" y="130" width="130" height="40" as="geometry" />
        </mxCell>
        <mxCell id="k0kh8Ats0GjNNbO5gGzA-47" style="edgeStyle=orthogonalEdgeStyle;rounded=0;orthogonalLoop=1;jettySize=auto;html=1;exitX=0.5;exitY=0;exitDx=0;exitDy=0;entryX=0;entryY=0.5;entryDx=0;entryDy=0;fillColor=#60a917;strokeColor=#2D7600;strokeWidth=2;" edge="1" parent="WIyWlLk6GJQsqaUBKTNV-1" source="k0kh8Ats0GjNNbO5gGzA-46" target="k0kh8Ats0GjNNbO5gGzA-40">
          <mxGeometry relative="1" as="geometry" />
        </mxCell>
        <mxCell id="k0kh8Ats0GjNNbO5gGzA-51" style="edgeStyle=orthogonalEdgeStyle;rounded=0;orthogonalLoop=1;jettySize=auto;html=1;exitX=0.5;exitY=1;exitDx=0;exitDy=0;entryX=0;entryY=0.5;entryDx=0;entryDy=0;" edge="1" parent="WIyWlLk6GJQsqaUBKTNV-1" source="k0kh8Ats0GjNNbO5gGzA-46" target="k0kh8Ats0GjNNbO5gGzA-48">
          <mxGeometry relative="1" as="geometry" />
        </mxCell>
        <mxCell id="k0kh8Ats0GjNNbO5gGzA-46" value="component" style="rhombus;whiteSpace=wrap;html=1;gradientColor=#97d077;fillColor=#d5e8d4;strokeColor=#82b366;" vertex="1" parent="WIyWlLk6GJQsqaUBKTNV-1">
          <mxGeometry x="390" y="310" width="130" height="40" as="geometry" />
        </mxCell>
        <mxCell id="k0kh8Ats0GjNNbO5gGzA-49" style="edgeStyle=orthogonalEdgeStyle;rounded=0;orthogonalLoop=1;jettySize=auto;html=1;exitX=0.5;exitY=0;exitDx=0;exitDy=0;entryX=0;entryY=0.5;entryDx=0;entryDy=0;" edge="1" parent="WIyWlLk6GJQsqaUBKTNV-1" source="k0kh8Ats0GjNNbO5gGzA-48" target="k0kh8Ats0GjNNbO5gGzA-37">
          <mxGeometry relative="1" as="geometry" />
        </mxCell>
        <mxCell id="k0kh8Ats0GjNNbO5gGzA-50" style="edgeStyle=orthogonalEdgeStyle;rounded=0;orthogonalLoop=1;jettySize=auto;html=1;exitX=0.5;exitY=1;exitDx=0;exitDy=0;entryX=0;entryY=0.5;entryDx=0;entryDy=0;" edge="1" parent="WIyWlLk6GJQsqaUBKTNV-1" source="k0kh8Ats0GjNNbO5gGzA-48" target="k0kh8Ats0GjNNbO5gGzA-35">
          <mxGeometry relative="1" as="geometry" />
        </mxCell>
        <mxCell id="k0kh8Ats0GjNNbO5gGzA-48" value="render" style="rhombus;whiteSpace=wrap;html=1;" vertex="1" parent="WIyWlLk6GJQsqaUBKTNV-1">
          <mxGeometry x="500" y="390" width="130" height="40" as="geometry" />
        </mxCell>
        <mxCell id="k0kh8Ats0GjNNbO5gGzA-52" value="Yes" style="text;html=1;align=center;verticalAlign=middle;resizable=0;points=[];autosize=1;strokeColor=none;" vertex="1" parent="WIyWlLk6GJQsqaUBKTNV-1">
          <mxGeometry x="460" y="260" width="40" height="20" as="geometry" />
        </mxCell>
        <mxCell id="k0kh8Ats0GjNNbO5gGzA-53" value="No" style="text;html=1;align=center;verticalAlign=middle;resizable=0;points=[];autosize=1;strokeColor=none;" vertex="1" parent="WIyWlLk6GJQsqaUBKTNV-1">
          <mxGeometry x="450" y="370" width="30" height="20" as="geometry" />
        </mxCell>
        <mxCell id="k0kh8Ats0GjNNbO5gGzA-54" value="Yes" style="text;html=1;align=center;verticalAlign=middle;resizable=0;points=[];autosize=1;strokeColor=none;" vertex="1" parent="WIyWlLk6GJQsqaUBKTNV-1">
          <mxGeometry x="585" y="350" width="40" height="20" as="geometry" />
        </mxCell>
        <mxCell id="k0kh8Ats0GjNNbO5gGzA-55" value="No" style="text;html=1;align=center;verticalAlign=middle;resizable=0;points=[];autosize=1;strokeColor=none;" vertex="1" parent="WIyWlLk6GJQsqaUBKTNV-1">
          <mxGeometry x="585" y="455" width="30" height="20" as="geometry" />
        </mxCell>
        <mxCell id="k0kh8Ats0GjNNbO5gGzA-66" style="edgeStyle=orthogonalEdgeStyle;rounded=0;orthogonalLoop=1;jettySize=auto;html=1;entryX=0.069;entryY=0.5;entryDx=0;entryDy=0;entryPerimeter=0;" edge="1" parent="WIyWlLk6GJQsqaUBKTNV-1" source="k0kh8Ats0GjNNbO5gGzA-59" target="k0kh8Ats0GjNNbO5gGzA-43">
          <mxGeometry relative="1" as="geometry">
            <mxPoint x="410" y="150" as="targetPoint" />
            <Array as="points">
              <mxPoint x="285" y="150" />
            </Array>
          </mxGeometry>
        </mxCell>
        <mxCell id="k0kh8Ats0GjNNbO5gGzA-68" style="edgeStyle=orthogonalEdgeStyle;rounded=0;orthogonalLoop=1;jettySize=auto;html=1;entryX=0;entryY=0.5;entryDx=0;entryDy=0;exitX=0.5;exitY=1;exitDx=0;exitDy=0;fillColor=#60a917;strokeColor=#2D7600;strokeWidth=2;" edge="1" parent="WIyWlLk6GJQsqaUBKTNV-1" source="k0kh8Ats0GjNNbO5gGzA-59" target="k0kh8Ats0GjNNbO5gGzA-46">
          <mxGeometry relative="1" as="geometry" />
        </mxCell>
        <mxCell id="k0kh8Ats0GjNNbO5gGzA-59" value="children" style="rhombus;whiteSpace=wrap;html=1;gradientColor=#97d077;fillColor=#d5e8d4;strokeColor=#82b366;" vertex="1" parent="WIyWlLk6GJQsqaUBKTNV-1">
          <mxGeometry x="220" y="230" width="130" height="40" as="geometry" />
        </mxCell>
        <mxCell id="k0kh8Ats0GjNNbO5gGzA-63" style="edgeStyle=orthogonalEdgeStyle;rounded=0;orthogonalLoop=1;jettySize=auto;html=1;exitX=0.5;exitY=0;exitDx=0;exitDy=0;entryX=0;entryY=0.5;entryDx=0;entryDy=0;fillColor=#60a917;strokeColor=#2D7600;strokeWidth=2;" edge="1" parent="WIyWlLk6GJQsqaUBKTNV-1" source="k0kh8Ats0GjNNbO5gGzA-60" target="k0kh8Ats0GjNNbO5gGzA-59">
          <mxGeometry relative="1" as="geometry">
            <Array as="points">
              <mxPoint x="115" y="250" />
            </Array>
          </mxGeometry>
        </mxCell>
        <mxCell id="k0kh8Ats0GjNNbO5gGzA-71" style="edgeStyle=orthogonalEdgeStyle;rounded=0;orthogonalLoop=1;jettySize=auto;html=1;entryX=0;entryY=0.5;entryDx=0;entryDy=0;exitX=0.5;exitY=1;exitDx=0;exitDy=0;" edge="1" parent="WIyWlLk6GJQsqaUBKTNV-1" source="k0kh8Ats0GjNNbO5gGzA-60" target="k0kh8Ats0GjNNbO5gGzA-70">
          <mxGeometry relative="1" as="geometry" />
        </mxCell>
        <mxCell id="k0kh8Ats0GjNNbO5gGzA-60" value="match" style="rhombus;whiteSpace=wrap;html=1;gradientColor=#97d077;fillColor=#d5e8d4;strokeColor=#82b366;" vertex="1" parent="WIyWlLk6GJQsqaUBKTNV-1">
          <mxGeometry x="50" y="330" width="130" height="40" as="geometry" />
        </mxCell>
        <mxCell id="k0kh8Ats0GjNNbO5gGzA-62" value="No" style="text;html=1;align=center;verticalAlign=middle;resizable=0;points=[];autosize=1;strokeColor=none;" vertex="1" parent="WIyWlLk6GJQsqaUBKTNV-1">
          <mxGeometry x="110" y="390" width="30" height="20" as="geometry" />
        </mxCell>
        <mxCell id="k0kh8Ats0GjNNbO5gGzA-64" value="Yes" style="text;html=1;align=center;verticalAlign=middle;resizable=0;points=[];autosize=1;strokeWidth=0;" vertex="1" parent="WIyWlLk6GJQsqaUBKTNV-1">
          <mxGeometry x="140" y="230" width="40" height="20" as="geometry" />
        </mxCell>
        <mxCell id="k0kh8Ats0GjNNbO5gGzA-67" value="Yes" style="text;html=1;align=center;verticalAlign=middle;resizable=0;points=[];autosize=1;strokeColor=none;" vertex="1" parent="WIyWlLk6GJQsqaUBKTNV-1">
          <mxGeometry x="300" y="130" width="40" height="20" as="geometry" />
        </mxCell>
        <mxCell id="k0kh8Ats0GjNNbO5gGzA-69" value="No" style="text;html=1;align=center;verticalAlign=middle;resizable=0;points=[];autosize=1;strokeColor=none;" vertex="1" parent="WIyWlLk6GJQsqaUBKTNV-1">
          <mxGeometry x="320" y="310" width="30" height="20" as="geometry" />
        </mxCell>
        <mxCell id="k0kh8Ats0GjNNbO5gGzA-80" style="edgeStyle=orthogonalEdgeStyle;rounded=0;orthogonalLoop=1;jettySize=auto;html=1;exitX=0.5;exitY=0;exitDx=0;exitDy=0;entryX=1;entryY=0.5;entryDx=0;entryDy=0;" edge="1" parent="WIyWlLk6GJQsqaUBKTNV-1" source="k0kh8Ats0GjNNbO5gGzA-70" target="k0kh8Ats0GjNNbO5gGzA-38">
          <mxGeometry relative="1" as="geometry">
            <mxPoint x="285" y="390" as="targetPoint" />
            <Array as="points">
              <mxPoint x="285" y="540" />
              <mxPoint x="810" y="540" />
              <mxPoint x="810" y="105" />
            </Array>
          </mxGeometry>
        </mxCell>
        <mxCell id="k0kh8Ats0GjNNbO5gGzA-70" value="children is function" style="rhombus;whiteSpace=wrap;html=1;" vertex="1" parent="WIyWlLk6GJQsqaUBKTNV-1">
          <mxGeometry x="220" y="435" width="130" height="40" as="geometry" />
        </mxCell>
        <mxCell id="k0kh8Ats0GjNNbO5gGzA-79" style="edgeStyle=orthogonalEdgeStyle;rounded=0;orthogonalLoop=1;jettySize=auto;html=1;entryX=0;entryY=0.5;entryDx=0;entryDy=0;exitX=1;exitY=0.5;exitDx=0;exitDy=0;" edge="1" parent="WIyWlLk6GJQsqaUBKTNV-1" source="k0kh8Ats0GjNNbO5gGzA-70" target="k0kh8Ats0GjNNbO5gGzA-35">
          <mxGeometry relative="1" as="geometry">
            <mxPoint x="285" y="440" as="sourcePoint" />
            <Array as="points">
              <mxPoint x="350" y="455" />
            </Array>
          </mxGeometry>
        </mxCell>
        <mxCell id="k0kh8Ats0GjNNbO5gGzA-81" value="No" style="text;html=1;align=center;verticalAlign=middle;resizable=0;points=[];autosize=1;strokeColor=none;" vertex="1" parent="WIyWlLk6GJQsqaUBKTNV-1">
          <mxGeometry x="350" y="435" width="30" height="20" as="geometry" />
        </mxCell>
        <mxCell id="k0kh8Ats0GjNNbO5gGzA-82" value="Yes" style="text;html=1;align=center;verticalAlign=middle;resizable=0;points=[];autosize=1;strokeColor=none;" vertex="1" parent="WIyWlLk6GJQsqaUBKTNV-1">
          <mxGeometry x="250" y="490" width="40" height="20" as="geometry" />
        </mxCell>
      </root>
    </mxGraphModel>
  </diagram>
</mxfile>
